<svg height="280" viewBox="0 0 264 280" width="264" xmlns="http://www.w3.org/2000/svg" xmlns:xlink="http://www.w3.org/1999/xlink"><defs><circle id="a" cx="120" cy="120" r="120"/><path id="b" d="m124 144.610951v18.389049h4c39.764502 0 72 32.235498 72 72v9h-200v-9c0-39.764502 32.235498-72 72-72h4v-18.389049c-17.2373655-8.188579-29.6277754-24.92394-31.6948612-44.7297125-5.8248283-.8234519-10.3051388-5.8291289-10.3051388-11.8812385v-14c0-5.9459926 4.3245733-10.8819269 10-11.8340831v-6.1659169c0-30.927946 25.072054-56 56-56 30.927946 0 56 25.072054 56 56v6.1659169c5.675427.9521562 10 5.8880905 10 11.8340831v14c0 6.0521096-4.48031 11.0577866-10.305139 11.8812385-2.067086 19.8057725-14.457496 36.5411335-31.694861 44.7297125z"/><mask id="c" fill="#fff"><use fill="#fff" fill-rule="evenodd" xlink:href="#a"/></mask><mask id="d" fill="#fff"><path d="m12 160c0 66.27417 53.72583 120 120 120s120-53.72583 120-120h12v-160h-264v160z" fill="#fff" fill-rule="evenodd"/></mask><mask id="e" fill="#fff"><use fill="#fff" fill-rule="evenodd" xlink:href="#b"/></mask><mask id="f" fill="#fff"><use fill="#fff" fill-rule="evenodd" xlink:href="#k"/></mask><mask id="g" fill="#fff"><use fill="#fff" fill-rule="evenodd" xlink:href="#l"/></mask><mask id="h" fill="#fff"><path d="m0 0h264v280h-264z" fill="#fff" fill-rule="evenodd"/></mask><mask id="i" fill="#fff"><use fill="#fff" fill-rule="evenodd" xlink:href="#n"/></mask><mask id="j" fill="#fff"><use fill="#fff" fill-rule="evenodd" xlink:href="#m"/></mask><path id="k" d="m108 13.0708856c-17.9186994 2.0050524-31.7201576 7.4809485-31.995797 21.574082-25.8577701 10.9231257-44.004203 36.5196581-44.004203 66.3545174v9.000515h200v-9.000515c0-29.8348593-18.146433-55.4313917-44.004203-66.3545018-.275639-14.0931491-14.077098-19.5690452-31.995797-21.5740976v18.9291144c0 13.254834-10.745166 24-24 24-13.254834 0-24-10.745166-24-24z"/><path id="l" d="m35.117844 15.1280772c1.0578681 9.4917253 9.1081433 16.8719228 18.882156 16.8719228 9.8042055 0 17.8740075-7.425864 18.8917593-16.9599454.0819092-.7673086-.7750164-2.0400546-1.8489923-2.0400546-14.8940134 0-26.3048457 0-33.9559426 0-1.0802076 0-2.0748186 1.1784435-1.9689804 2.1280772z"/><path id="m" d="m185.831676 73.928751c1.757192.9886155 3.14853 10.8991746 3.215859 14.6889048.042115 2.3385557.079823 11.2563543-2.393486 10.4854735-.753036-.2347063-1.902367-4.9558809-2.065839-7.7190328-.163473-2.7631519-1.733141-12.1640931-4.141453-16.4893704-.550266-.9883895-2.125976-2.7238333-1.44521-3.5599195.844517-1.0367469 1.664651-.4352168 2.695637-.0201113 1.115216.4494529 3.937216 2.5033308 4.134492 2.6140557zm.805066-2.9721634c-.746079.962214-5.840913-1.7388946-7.965568-2.9126154-17.845593-9.8599164-21.309612-12.9952891-49.425467-12.5861269-28.115854.4091621-47.3782291 13.5821772-48.4617252 14.9295953-.7538234.9374425-1.7162045 3.4404813-2.5075732 10.4130996-.7913686 6.9726182.2187975 19.4772488-2.6459227 19.4620778-2.4389765-.012916-2.9695947-23.7855827-1.916755-33.2162256.1616448-1.4479072.7846346-4.0379967.3336914-5.3405122-.3941237-1.1376317-2.3220455-1.135314-2.0143006-3.0308151.3497848-2.1577258 2.5253477-1.0859814 3.4728868-2.1176637 1.7945766-1.9544354-.973814-2.4169708-1.4329682-4.1267293-.6824909-2.5414613 1.2897699-3.1970232 3.0666109-3.99959 1.9663489-.8873262 1.7108254-.1079359 3.306698-1.8461683-2.1315524-1.5624226-2.9027212-3.6910124.0160933-4.8329483 1.2395191-.4850496 4.4644364.1569376 5.4356229-.5717957.2532245-.1900467.3533976-1.279339.5094049-1.5021639 1.5508768-2.2186467 1.1682483-3.8247735 1.0109273-6.3155777-.129404-2.0382017-.1119968-3.9092019 2.3282858-4.1128234 1.6283878-.1357477 2.9526435 1.1945795 4.4115581 1.5862612 1.6185347.4347236 1.0105988.7519097 2.2786919-.1208486 2.2261421-1.5332865.7110648-4.5207286 2.4764106-6.3029962 2.422547-2.4457758 4.010537 1.1392872 5.955538 1.4097893 4.222378.5883502 2.86725-3.6999519 5.366979-5.271314 2.987786-1.8766288 3.276811 2.2507627 5.142986 2.3977675 1.617221.1268082 4.52881-2.9937329 5.938459-3.5751302 4.182638-1.725982 6.255072 3.1308049 10.236707 2.5113319 2.889255-.4496227 3.669292-.8168037 6.276748.8270676 2.530931 1.5955318 3.132299.4549202 5.998235.4320749 2.02481-.0152302 3.264986 1.6766493 4.958733 1.8531213.844738.0884015 1.653349-.7916407 2.559833-.7363484 3.237398.1963375 3.442014 4.3826633 6.014 5.5351942 2.349962 1.0532033 5.11277-.4264464 7.444997-.7002594 5.690489-.6678123 1.793591 4.6472058 1.954196 7.8193971 2.233696.5211387 4.500893-1.5637469 6.724408-1.1800115 3.50146.6045738 2.179832 4.2333409 1.368266 6.6797789 2.42616-.0437042 8.759399-2.7368056 10.331296.7075433.810581 1.7759769-1.077928 4.1469259-1.047055 5.95237.043353 2.5414613 1.910843 4.6442259 2.571657 7.0496084.891705 3.2470182 2.162507 11.9500017-.072585 14.8325855z"/><path id="n" d="m101.428403 98.1685688c-2.5135658 2.2940522-5.191183 3.3257402-8.5754586 2.6042942-.5823667-.12403-2.9566053-4.5382917-8.85311-4.5382917s-8.2704091 4.4142617-8.8531099 4.5382917c-3.3842757.721446-6.0618929-.310242-8.5754584-2.6042942-4.7250889-4.3129648-8.6546442-10.260383-6.2934362-16.7493874 1.2305545-3.3822389 3.231918-7.0954472 6.8727958-8.1732705 3.8877906-1.150369 9.3462674-.0020058 13.2641285-.7876401 1.2693122-.254746 2.6558996-.7074051 3.5850802-1.4582708.9291806.7508657 2.3161021 1.2035248 3.5847461 1.4582708 3.9181953.7856343 9.376672-.3627289 13.2644625.7876401 3.640878 1.0778233 5.642241 4.7910316 6.87313 8.1732705 2.361208 6.4890044-1.568347 12.4364226-6.29377 16.7493874m38.65263-72.1685688c-3.41034 8.4002532-2.093259 18.8580348-2.724367 27.6758724-.512628 7.1673218-2.019546 17.9098802-8.383808 22.5386586-3.254497 2.3670828-9.178498 6.3453676-13.430988 5.2356633-2.927331-.7638095-3.239688-9.1600983-7.086586-12.3032142-4.363564-3.5646648-9.8122986-5.1309369-15.3061359-4.8891079-2.37061.1043961-7.1650114.0796186-9.149215 1.9025862-1.9842036-1.8229676-6.7782684-1.7981901-9.1488784-1.9025862-5.4941739-.241829-10.942908 1.3244431-15.306473 4.8891079-3.8468978 3.1431159-4.1589176 11.5394047-7.0862491 12.3032142-4.2524899 1.1097043-10.1764905-2.8685805-13.4313249-5.2356633-6.3645981-4.6287784-7.8708425-15.3713368-8.3841437-22.5386586-.6307714-8.8178376.6863089-19.2756192-2.7240305-27.6758724-1.6590567 0-.5647996 16.1288693-.5647996 16.1288693v20.3562512c.0316396 15.2880841 9.5810611 38.1703245 30.7539777 46.9078835 5.178115 2.136816 16.9072995 5.606996 25.8919215 5.606996s20.7138069-3.139812 25.8919219-5.276629c21.172916-8.737558 30.722338-31.9501664 30.754314-47.2382505v-20.3562512s1.09392-16.1288693-.565136-16.1288693"/></defs><g fill="none" fill-rule="evenodd"><g transform="translate(12 40)"><use fill="#e6e6e6" xlink:href="#a"/><g fill="#65c9ff" mask="url(#c)"><path d="m0 0h240v240h-240z"/></g></g><g mask="url(#d)"><g transform="translate(32 36)"><use fill="#d0c6ac" xlink:href="#b"/><g fill="#ae5d29" mask="url(#e)"><path d="m0 0h264v244h-264z" transform="translate(-32)"/></g><path d="m156 79v23c0 30.927946-25.072054 56-56 56s-56-25.072054-56-56v-23 15c0 30.927946 25.072054 56 56 56s56-25.072054 56-56z" fill="#000" fill-opacity=".1" mask="url(#e)"/></g><g fill-rule="evenodd" transform="translate(0 170)"><use fill="#b7c1db" xlink:href="#k"/><g fill="#262e33" mask="url(#f)"><path d="m0 0h264v110h-264z"/></g><path d="m102 61.7390531v48.2609469h-7v-51.8497375c2.2037542 1.3097951 4.5467694 2.5105253 7 3.5887906zm67-3.5887906v40.3497375c0 1.932997-1.567003 3.5-3.5 3.5s-3.5-1.567003-3.5-3.5v-36.7609469c2.453231-1.0782653 4.796246-2.2789955 7-3.5887906z" fill="#f4f4f4" mask="url(#f)"/><path d="m90.9601329 12.7243537c-15.0508234 2.8468245-25.4601329 8.518531-25.4601329 19.5833386 0 19.7123172 33.0376807 35.6923077 66.5 35.6923077 33.462319 0 66.5-15.9799905 66.5-35.6923077 0-11.0648076-10.40931-16.7365141-25.460133-19.5833386 9.085054 3.3501061 14.960133 8.9817009 14.960133 18.3525694 0 20.3920523-27.821205 36.9230769-56 36.9230769s-56-16.5310246-56-36.9230769c0-9.3708685 5.8750795-15.0024633 14.9601329-18.3525694z" fill="#000" fill-opacity=".16" mask="url(#f)"/></g><g fill="#000" transform="translate(76 82)"><g fill-rule="evenodd" transform="translate(2 52)"><use fill="#000" fill-opacity=".7" xlink:href="#l"/><rect fill="#fff" height="16" mask="url(#g)" rx="5" width="31" x="39" y="2"/><g fill="#ff4f6d" mask="url(#g)"><g transform="translate(38 24)"><circle cx="11" cy="11" r="11"/><circle cx="21" cy="11" r="11"/></g></g></g><path d="m16 8c0 4.418278 5.372583 8 12 8 6.627417 0 12-3.581722 12-8" fill-opacity=".16" transform="translate(28 40)"/><g fill-opacity=".6"><g transform="translate(0 8)"><path d="m27.2409577 20.3455337c-.7782427 1.0119576-1.2409577 2.2791755-1.2409577 3.6544663 0 3.3137085 2.6862915 6 6 6s6-2.6862915 6-6c0-.2902102-.0206039-.5756081-.0604287-.8548106.0078505-.2224051-.0297888-.4742356-.1242195-.7380652-.0449826-.1256765-.0932366-.249873-.1446645-.3725557-.3336674-.9628421-.9056417-1.8143576-1.6453596-2.4839835-2.1264417-2.2332597-5.5188542-3.550585-9.0277474-3.550585-4.8331578 0-8.9909043 2.648508-10.8374129 6.4473116-.5400662 1.1110728.3866254 1.8529828 1.2773718 1.1243296 2.4362192-1.9928893 5.8196669-3.2278528 9.5600411-3.2278528.0812964 0 .1624242.0005834.2433774.0017453z"/><path d="m85.2409577 20.3455337c-.7782427 1.0119576-1.2409577 2.2791755-1.2409577 3.6544663 0 3.3137085 2.6862915 6 6 6s6-2.6862915 6-6c0-.2902102-.0206039-.5756081-.0604287-.8548106.0078505-.2224051-.0297888-.4742356-.1242195-.7380652-.0449826-.1256765-.0932366-.249873-.1446645-.3725557-.3336674-.9628421-.9056417-1.8143576-1.6453596-2.4839835-2.1264417-2.2332597-5.5188542-3.550585-9.0277474-3.550585-4.8331578 0-8.9909043 2.648508-10.8374129 6.4473116-.5400662 1.1110728.3866254 1.8529828 1.2773718 1.1243296 2.4362192-1.9928893 5.8196669-3.2278528 9.5600411-3.2278528.0812964 0 .1624242.0005834.2433774.0017453z"/></g><g><path d="m38.5686071 10.7022978c-4.9820514.5361516-9.9132686.431602-14.9123627.3987628-3.8331383-.024797-7.7365044-.4118315-11.3316326 1.4080681-.6884663.3481634-4.4478509 2.4358037-4.32149985 3.5017401.10078701.852481 4.00973595 2.0527904 4.71348195 2.2729476 3.7114887 1.1614384 7.207593.6443872 10.9705037.2865061 4.6153395-.4386391 9.2268591-.3957469 13.845137-.6963269 3.109999-.2020622 7.8901825-.8970487 9.2970868-4.7255061.4237168-1.1530611-.0141043-3.41495059-.5218592-4.64206755-.2024556-.48890324-.744002-.65678571-1.1386287-.357211-1.4127811 1.07297337-4.1836891 2.29338845-6.6002264 2.55308685" transform="matrix(.99939083 .0348995 -.0348995 .99939083 .487895 -.951512)"/><path d="m95.5686071 10.7022978c-4.9820514.5361516-9.9132686.431602-14.9123627.3987628-3.8331383-.024797-7.7365044-.4118315-11.3316326 1.4080681-.6884663.3481634-4.4478509 2.4358037-4.3214998 3.5017401.100787.852481 4.0097359 2.0527904 4.7134819 2.2729476 3.7114887 1.1614384 7.207593.6443872 10.9705037.2865061 4.6153395-.4386391 9.2268591-.3957469 13.845137-.6963269 3.109999-.2020622 7.8901824-.8970487 9.2970864-4.7255061.423717-1.1530611-.014104-3.41495059-.521859-4.64206755-.202455-.48890324-.744002-.65678571-1.138629-.357211-1.412781 1.07297337-4.1836886 2.29338845-6.6002259 2.55308685" transform="matrix(-.99939083 .0348995 .0348995 .99939083 168.477382 -2.940784)"/></g></g></g><g fill-rule="evenodd" mask="url(#h)"><g transform="translate(48 72)"><use fill="#331b0c" fill-rule="evenodd" xlink:href="#n"/><g fill="#2c1b18" mask="url(#i)"><path d="m0 0h264v244h-264z" transform="translate(-32)"/></g></g><g fill-rule="evenodd"><use fill="#2e3257" xlink:href="#m"/><g fill="#2c1b18" mask="url(#j)"><path d="m0 0h264v280h-264z"/></g></g></g></g></g></svg>