<svg id="Group_1" data-name="Group 1" xmlns="http://www.w3.org/2000/svg" viewBox="0 -0.098 73 96.324">
  <defs>
    <style>
      .cls-1 {
        fill: #fff;
      }
    </style>
  </defs>
  <path id="Path_1" data-name="Path 1" class="cls-1" d="M67.619,0H58.1V43.324H90.436V35.345H67.619Z" transform="translate(-17.436 -0.098)"/>
  <path id="Path_2" data-name="Path 2" class="cls-1" d="M21.277,0H0V43.324H21.767c1.05,0,14.7-.28,14.7-13.3a10.542,10.542,0,0,0-5.109-9.239,11.114,11.114,0,0,0,2.94-8.119C34.3,0,21.277,0,21.277,0ZM9.519,17.288V7.979H19.6s4.829,0,4.829,4.619S19.6,17.218,19.6,17.218H9.519Zm0,18.058V24.707H20.157s6.019,0,6.019,5.319-5.249,5.319-5.879,5.319H9.519Z" transform="translate(0 -0.098)"/>
</svg>
