<svg xmlns="http://www.w3.org/2000/svg" xmlns:xlink="http://www.w3.org/1999/xlink" width="198" height="117" viewBox="0 0 198 117">
    <defs>
        <path id="a" d="M0 .734h198.006v15.798H0z"/>
    </defs>
    <g fill="none" fill-rule="evenodd">
        <g transform="translate(0 -.734)">
            <mask id="b" fill="#fff">
                <use xlink:href="#a"/>
            </mask>
            <path fill="#BD3826" d="M23.868 2.363l103.84 1.357c7.126-3.733 31.559-.339 31.559-.339v5.43c-10.18-1.697-31.56.678-31.56.678L23.868 6.095V2.363zM1.37 8.084l.003.054C.677 8.368.189 8.594 0 8.81l1.422.077c.033.54.065 1.1.096 1.711l.01.203c1.607-.507 4.25-1.033 7.15-1.52l120.726 6.543s70.812 2.714 68.549-2.489c0 0-23.302-4.75-31.22-4.977-2.85-.08-4.67-.134-5.837-.167V.734H22.442V4.64C18.66 5.09 6.036 6.663 1.53 8.09l-.16-.005z" mask="url(#b)"/>
        </g>
        <path fill="#BD3826" d="M148.25 90.61c-.218.77-.576 1.447-.967 2.197-.088.189-.253.343-.415.497-.178.137-.356.275-.532.378-1.066.699-2.357 1.019-3.586.867a5.157 5.157 0 0 1-2.085-.678c-.364-.206-.66-.497-.966-.772-.267-.26-.687-.478-.856-.807a2.993 2.993 0 0 1-.21-.42 1.846 1.846 0 0 1-.145-.438c-.093-.366-.116-.86-.045-1.185l.122-.423.009.024-.002-.024c0-.064.008-.125.01-.188l-.004-.057c-.08-.748.06-1.561.469-2.273.07-.126.166-.26.26-.408.104-.14.216-.288.339-.43.25-.273.539-.527.8-.68.107-.062.202-.116.293-.16.094-.036.18-.066.264-.092.164-.06.32-.082.49-.115.34-.063.733-.151 1.475-.255 1.06-.143 2.169.185 3.118.72.459.25.894.563 1.282.943.383.38.717.842.892 1.372.287.794.204 1.652-.01 2.407m-30.778 14.229c-.067.319-.191.777-.476.997-.143.118-.21.28-.372.383-.15.1-.336.165-.413.308-.12.186-.221.384-.32.589-.118.193-.223.4-.36.593-.177.225-.353.46-.583.664-.074.069-.141.148-.222.214l-.254.192a1.781 1.781 0 0 1-.586.297c-.21.087-.45.044-.668.036-.178 0-.334-.101-.47-.235-.197-.194-.415-.216-.66-.214-.202-.01-.382-.087-.588-.124-.098-.018-.327-.218-.542-.418-.19-.218-.38-.433-.437-.5a5.815 5.815 0 0 0-.43-.364c-.114-.104-.214-.191-.302-.288-.185-.187-.291-.428-.351-.882-.02-.232-.002-.471-.057-.677-.057-.201-.161-.385-.242-.578-.125-.286-.178-.593-.281-.885-.055-.155-.105-.312-.171-.465-.04-.095-.124-.18-.146-.28-.016-.073.054-.152.083-.228.107-.29-.112-.575-.16-.843a23.49 23.49 0 0 1-.151-1.238c-.02-.188-.018-.34.102-.522l.113-.162a18.606 18.606 0 0 1-.006-1.284c-.056-.118-.13-.234-.183-.354-.032-.081-.086-.165-.08-.247a13.44 13.44 0 0 1 .396-2.71c.2-.8.545-1.525.74-2.347.04-.178.077-.358.128-.537.043-.156.365-.203.329-.39-.03-.19.132-.265.244-.366.116-.113.2-.25.279-.4.079-.146.145-.31.275-.421a3.283 3.283 0 0 1 1.557-.895c.076-.016.152-.027.229-.035 1.265 1.698 2.289 3.758 3.085 5.94.486 1.32.894 2.689 1.238 4.08.17.697.327-.638.464.066l.103.566.156 1.056c-.018.39.143.76.414 1.11-.094.303-.223.608-.253.905-.057.345-.101.545-.171.893M23.544 75.157c-.026.252-.058.396-.095.652-.035.236-.113.575-.358.718-.125.075-.171.193-.31.258-.128.06-.294.089-.348.19-.084.135-.151.28-.213.436-.078.146-.146.304-.24.45-.122.174-.244.354-.41.518a2.318 2.318 0 0 1-.345.329c-.123.11-.28.187-.444.244-.161.067-.35.027-.518.012-.138-.007-.258-.096-.357-.23-.142-.192-.302-.19-.493-.175-.155.007-.293-.044-.455-.06-.076-.008-.245-.162-.4-.318a7.975 7.975 0 0 0-.312-.378 3.166 3.166 0 0 0-.334-.25c-.091-.07-.171-.13-.24-.197-.144-.132-.218-.312-.22-.663.008-.18.049-.364.019-.516-.031-.148-.117-.273-.176-.412-.09-.204-.122-.425-.196-.632a2.995 2.995 0 0 0-.137-.328c-.032-.067-.11-.123-.124-.195-.011-.053.062-.114.096-.171.12-.215-.081-.41-.116-.6a20.184 20.184 0 0 1-.111-.881c-.016-.135-.01-.243.113-.375l.117-.12c-.004-.092-.005-.187-.007-.281 2.192.677 4.595 1.383 6.87 2.063-.037.303-.242.607-.256.912m167.019 22.886l1.822-3.594.01-1.65a112.165 112.165 0 0 1 .077-3.444c.25-6.432.618-10.225.56-16.598-.043-4.925-.386-9.072-.528-13.301-.24.185-.488.383-.733.594-.005.008-.012.013-.017.022-.061.1-.124.44-.317.397-.06-.013-.096-.006-.124.012l-.04.04c-.04.058-.06.144-.147.197-.032.02-.061.042-.091.064a8.642 8.642 0 0 0-.911 1.279c-.2.35-.383.727-.528 1.125-.164.395-.261.82-.358 1.248-.054.209-.08.435-.12.649l-.028.162-.007.04-.004.02-.001.01c-.02-.002.026.01.02.01l-.02.087-.068.322c-.097.427-.158.865-.222 1.29-.121.857-.171 1.698-.212 2.458-.064 1.522-.048 2.744-.054 3.268-.011 3.204 0 6.392.112 9.53a9.29 9.29 0 0 1-.036 1.31c-.055.48-.162 1.023-.44 1.588a3.695 3.695 0 0 1-1.283 1.46c-.53.35-1.044.522-1.488.642-.45.117-.841.18-1.178.242l-1.05.185-2.09.348c-2.78.45-5.55.845-8.405 1.295l-3.1.494-3.466.574-2.764.47-.172.03-.086.014c-.013.002-.03.007-.041.006l.003-.045.025-.351.05-.704.1-1.402.277-3.763c.27-3.643.548-7.316.74-10.967.14-2.676-.15-2.612-.046-5.222a6.02 6.02 0 0 0 .005-.14l.003-.067-.011-.025c-.006-.005.004-.025-.011-.02-.011 0-.02-.002-.034-.006l-1.553.102-5.794.359-20.246 1.327c-2.04.13-4.128.398-6.242.454-.074.07-.151.166-.217.13-.07-.037-.126.128-.208.05a.792.792 0 0 1-.116-.17c-2.033.02-4.098-.068-6.151-.344-2.068-.28-4.088-.712-6.064-1.2-1.977-.487-3.915-1.025-5.837-1.516a115.673 115.673 0 0 0-5.787-1.321c-5.891-1.193-11.894-2.184-17.89-3.234-7.71-1.322-15.392-2.681-22.991-4.483-5.91-1.398-11.696-3.223-17.563-4.837a196.769 196.769 0 0 1-3.14-.868c-1.122-.187-2.243-.35-3.511-.588-1.12-.212-5.872-1.111-6.996-1.447-1.57-.474-5.885-1.007-7.477-1.51-1.02-.316-3.057-.546-4.014-.916-1.277-.496-1.678-1.195-1.626-1.677l-.9-.25c-.045.114-.09.213-.131.273-.084.126-.402.154-.49.087-.1-.078-.238-.032-.36-.041-.193-.015-.538-.267-.702-.37-.206-.128-.726-.103-.957-.147-.282-.058-.187-.315-.47-.377-.472-.11-.958-.163-1.427-.284-.448-.107-.763-.343-1.216-.426-.283-.046-1.066-.004-1.2-.3-.15-.326-.507-.154-.891-.334-.338-.155-.691-.268-1.04-.391l-.337-.035c-.485-.04-.962-.118-1.447-.143-.156-.01-.347.032-.48-.084-.552-.47-1.016-.213-1.605-.292-.394-.048-.612-.185-1-.308-.408-.127-1.166-.13-1.572-.274-.575-.207-.576-.185-.952-.246-.233-.04-.463-.137-.688-.208-.032-.008-.07-.014-.103-.022.026.565.052 1.132.08 1.698.114 2.348.596 15.69 1.034 19.774.2 2.59.305 2.04.358 0l.058 1.737 1.564.546c1.415 1.625 3.884 3.484 4.989 3.96.665.287 1.526.603 2.496.936-.023.365-.04.734-.04 1.108 0 6.466 3.63 11.708 8.108 11.708 3.567 0 6.589-3.332 7.673-7.955.874.288 1.655.56 2.278.805 2.31.908 4.737 1.676 7.054 2.578 1.696.66 3.262 1.545 4.953 2.137 2.27.796 4.646 1.31 6.909 2.114 6.647 2.366 13.24 4.872 19.894 7.214 6.414 2.258 12.925 4.277 19.309 6.584l3.772 1.375 2.916 1.055 1.709.615.86.31.43.156.214.076.187.043.013-3.212c-.003-.272.023-.517.034-.778.01-.26.029-.514.057-.764l.076-.757.063-.452c.153-1.011.37-2.002.654-2.946.553-1.888 1.463-3.598 2.63-4.565.58-.49 1.22-.766 1.934-.905.709-.136 1.533-.103 2.366.06.129.024.249.078.375.11-2.663 3.029-4.38 7.718-4.38 12.994 0 9.136 5.128 16.542 11.453 16.542 4.78 0 8.873-4.232 10.589-10.242.962.127 1.869.18 2.612.14 6.635-.354 13.275 1.303 19.92 1.4 3.705.055 7.524.22 11.302.125l4.565-.121 1.072-.247.98-.217 2.182-.457a507.86 507.86 0 0 1 6.77-1.301c1.725-.321 3.787-.783 6.01-1.312 1.11-.272 2.264-.552 3.437-.838l4.249-1.061c.69-1.38 1.38-2.753 2.05-4.092"/>
        <path fill="#BD3826" d="M191.106 53.988c-.004.378-.01.775-.032 1.072-.031.413-.086.517-.136.587-.718 1.005-1.444.952-2.169.899-.05-.004-.104-.024-.143-.361-.039-.337-.043-1.114.003-1.312l.017.873c-.026-1.987-.023-4-.02-6.005.007-5.271.015-10.54.024-15.811.003-2.421.007-4.881.077-7.19.069-2.308.215-4.483.428-5.407.116-.502.243-.607.369-.705.249-.197.501-.394.75-.121.249.27.499 1.042.7 2.61.052.403.101.865.133 1.446.036.63.051 1.363.062 2.085.156 9.008.046 18.259-.063 27.34m-5.853 2.909c-.035.382-.077.784-.253 1.086-.246.418-.675.523-1.066.593-5.636 1.017-11.344.965-17.029.91-.395-.004-.822-.023-1.125-.364-.302-.341-.335-1.128.03-1.33l.129.884c-.204-2.01-.182-4.05-.158-6.08l.185-16.008c.029-2.451.062-4.943.609-7.28.546-2.337 1.688-4.54 3.361-5.474.911-.51 1.911-.615 2.894-.714 1.961-.2 3.935-.4 5.891-.123 1.957.275 3.916 1.054 5.494 2.644.406.408.788.875 1.046 1.463.28.638.394 1.38.491 2.11 1.219 9.122.362 18.488-.499 27.683m-22.776 1.87c-.051.408-.111.835-.366 1.156-.353.444-.972.556-1.534.63-8.116 1.082-16.335 1.027-24.522.968-.567-.004-1.183-.025-1.619-.387-.435-.364-.482-1.2.043-1.413l.186.94c-.294-2.138-.261-4.306-.228-6.464l.268-17.02c.041-2.605.088-5.254.875-7.74.786-2.483 2.432-4.824 4.84-5.82 1.311-.54 2.753-.651 4.166-.758 2.826-.212 5.668-.424 8.486-.131 2.817.293 5.638 1.122 7.911 2.812.583.433 1.135.93 1.505 1.554.402.679.567 1.469.708 2.245 1.754 9.696.519 19.654-.719 29.429m-43.75-14.691l-5.234-.728c-.103-.958-.227-1.902-.313-2.882l-.356-4.404c-.046-.543-.183-1.086-.189-1.606-.014-1.115.05-2.23.143-3.391.05-.618.118-1.245.25-1.87a8.936 8.936 0 0 1 .585-1.821c.686-1.546 1.739-2.881 2.778-4.137l.793-.946c.286-.327.671-.71 1.195-.928.511-.216 1.024-.254 1.483-.244.467.009.877.082 1.294.149 1.337.23 2.558.544 3.763 1.213.749.415 1.361 1.015 2 1.787a20.356 20.356 0 0 1 2.061 3.07c.202.4.36.738.453 1.059.051.159.101.307.135.455.028.149.056.294.082.44.104.579.125 1.158.147 2.013l-.008.09c-.038.462-.025 1.492-.032 2.774.003 1.28.038 2.842.084 4.41.083 2.865.203 5.74.231 6.932-2.209-.485-9.175-1.131-11.345-1.435m11.268 11.043c-.044 1.655-.242 3.276-.28 4.93-.009.404-.007.863-.12 1.332a2.39 2.39 0 0 1-.294.718 1.808 1.808 0 0 1-.605.594 1.975 1.975 0 0 1-.716.245 3.04 3.04 0 0 1-.641.017c-.4-.033-.719-.103-1.044-.154l-2.081-.344c-1.111-.191-3.304-.565-5.607-1.023-.58-.12-1.149-.224-1.737-.383l-.468-.13c-.155-.062-.319-.117-.481-.193a3.114 3.114 0 0 1-.91-.616c-.533-.528-.763-1.19-.859-1.74a4.988 4.988 0 0 1-.066-.79c-.004-.122.003-.241.004-.355l-.002-.085c.042-.03.022-.055.036-.084l.033-.161c.072-.321.095-.343.132-.355.015-.006.04-.011.069-.035a.443.443 0 0 1-.185 0l-.005.005v-.007c-.325-.085-.532-.568-.506-1.196.022-.561.152-2.881.127-5.216a111.457 111.457 0 0 0-.132-4.732c6.142.849 12.132 1.712 16.175 2.188l.215.025c-.045.947-.118 1.666-.11 3.1.008 1.484.096 2.978.058 4.445M111.44 40.858c-.074.347-.068.707-.145 1.053-.073.329-.19.645-.188.99 0 .04.002.078.003.117l-8.048-1.117-5.841-.774a20.659 20.659 0 0 0-.114-.925c-.056-.371-.118-.74-.184-1.11-.056-.316.152-.754.018-1.041-.136-.29-.074-.598-.062-.905.029-.665-.178-1.315-.213-1.98a67.376 67.376 0 0 1-.101-3.481c-.003-.71.078-1.42.099-2.134a8.17 8.17 0 0 1 .367-2.175c.196-.647.266-1.342.412-2.01.243-1.176.8-2.122 1.435-3.032.321-.456.667-.908 1.024-1.39.181-.238.349-.493.595-.784.123-.144.265-.292.443-.431.178-.14.394-.263.616-.35.268-.103.548-.057.792-.06.255-.005.508-.021.727.066.71.32 1.42.439 2.12.703.758.27 1.506.602 2.196 1.046 1.128.756 1.872 1.76 2.561 2.903.512.847 1.106 1.893 1.256 2.892.03.242.054.479.074.715.014.237.027.47.051.705.051.492.103.98.097 1.466-.008.497-.121.983-.132 1.468-.021.9.145 1.662.164 2.562.019.909-.107 1.955-.053 2.86.034.727.054 1.15.09 1.879.04.67.08 1.623-.059 2.274m.015 9.959a2.741 2.741 0 0 1-.193.849c-.168.404-.112.87-.054 1.298.049.366.072.735.12 1.1.046.347-.099 2.262-.083 2.612.017.454.054.79.073 1.126.016.333.013.634-.066.957-.078.31-.245.692-.653.964a1.427 1.427 0 0 1-.706.23 2.056 2.056 0 0 1-.736-.104c-.242-.077-.445-.171-.655-.253a6.492 6.492 0 0 0-.636-.226c-.427-.125-.875-.182-1.313-.273l-1.939-.427a19.6 19.6 0 0 0-1.043-.181c-.217-.032-.438-.025-.652-.074-.157-.035-.268-.138-.407-.205-.521-.253-1.235-.267-1.803-.39-.432-.103-.883-.176-1.327-.362a2.274 2.274 0 0 1-1.093-.924 2.032 2.032 0 0 1-.313-1.115c0-.116.008-.233.015-.35a8.894 8.894 0 0 1-.06-1.335.248.248 0 0 1-.079.1c-.023-.017-.058-.053-.061-.086l-.01-.1-.195.166c.031-.415.055-.831.077-1.246-.039-.26-.104-.507-.144-.763-.028-.171-.074-.345-.068-.522.053-1.952.026-3.907-.027-5.862-.021-.812-.036-1.621-.07-2.427 2.566.386 4.467.708 5.681.969 2.595.315 5.378.682 8.177 1.063.016.226.032.45.045.676l.107 1.71c.052.758.14 1.514.153 2.272.006.38-.031.756-.062 1.133M95.772 32.064l-.043 3.743a568.561 568.561 0 0 0-.045 5.116c-1.053-.14-2.265-.29-9.14-1.157.213.16-1.38.015-3.919-.29l-.024-.45-.404-7.733c-.049-1.353-.152-2.734-.035-4.184.059-.72.18-1.458.405-2.165.216-.708.515-1.378.853-2.008.338-.633.72-1.223 1.108-1.792l.589-.834c.202-.275.373-.531.624-.84.126-.148.272-.304.457-.447.183-.143.413-.265.636-.337.456-.147.885-.136 1.258-.093.725.11 1.39.292 2.013.579a8.121 8.121 0 0 1 1.705 1.009c.265.188.493.409.732.613.218.222.448.432.641.667a10.133 10.133 0 0 1 1.787 2.887c.363.884.569 1.753.672 2.532.105.78.132 1.48.143 2.11.012 1.258-.009 2.235-.013 3.074m-.268 23.296c-.119.343-.396.757-.835.962-.442.208-.861.173-1.17.129-.324-.053-.552-.113-.812-.167l-.762-.167c-2.022-.448-3.991-.867-5.646-1.28l-.307-.074c-.098-.036-.199-.058-.297-.088-.197-.057-.408-.115-.619-.197-.418-.157-.87-.43-1.131-.786a2.666 2.666 0 0 1-.498-1.01 3.699 3.699 0 0 1-.12-.81 5.198 5.198 0 0 1 .009-.604l.008-.113.003-.053c.032-.017.014-.033.025-.05.014-.062.028-.116.041-.163.051-.185.081-.25.102-.231.04.035.052.405.182.803a.253.253 0 0 0 .022.054 10.577 10.577 0 0 1-.026-1.217l-.307.275.003-.05c-.086.073-.165.06-.23-.117-.12-.317-.171-1.147-.214-2.901-.036-1.455-.086-3.548-.225-6.524 1.86.247 3.829.51 5.965.796 2.67.356 5.005.679 7.011.97-.005 1.207-.008 2.636-.012 4.364l.015 5.004.007 1.488c-.008.484.054 1.066-.182 1.757M80.67 47.267c.055.545.166 1.096.156 1.649-.012.684-.117 1.358-.137 2.042-.015.344 0 .704-.055 1.122-.029.206-.07.422-.165.65a1.514 1.514 0 0 1-.486.65c-.289.228-.678.295-.961.268-.29-.021-.53-.095-.738-.154-.42-.121-.844-.237-1.269-.328-.852-.175-1.748-.36-2.616-.537-.846-.171-1.721-.272-2.553-.477-.234-.052-.45-.132-.692-.205a3.504 3.504 0 0 1-.758-.336 2.09 2.09 0 0 1-.652-.617 2.457 2.457 0 0 1-.341-.762c-.139-.511-.151-1.025-.115-1.498.001-.015.005-.04.01-.074.024-.034.026-.076.041-.122l.085-.307c.02-.073.037-.142.049-.2l.002-.08a.94.94 0 0 1-.135.218c-.008-.041-.019-.081-.03-.122l-.122.11c.012-.175.02-.351.03-.527-.007-.038-.017-.077-.022-.116-.137-1.3-.285-2.636-.382-3.96-.098-1.364-.095-2.727-.131-4.1a5.13 5.13 0 0 1 .002-.304c3.921.5 7.632.985 11.835 1.542.073.809.203 1.607.284 2.417.046.467.113.945.08 1.407-.047.66-.189 1.308-.261 1.966-.028.254.021.525.047.785m-12.324-13.62c-.03-.377-.096-.76-.083-1.134.022-.55.198-1.108.14-1.637-.108-1.028-.342-2.028-.484-3.066-.033-.25-.036-.507-.04-.764-.013-.836.026-1.696.215-2.551a7.66 7.66 0 0 1 .987-2.388c.576-.922 1.324-1.704 1.935-2.54l.547-.766c.195-.26.464-.56.844-.723.369-.163.758-.188 1.103-.167.352.018.662.098.99.165.572.158 1.13.374 1.64.674 1.439.855 2.514 2.149 3.26 3.586.111.186.519.994.806 1.946.298.956.416 2.027.489 2.59.101.75.079 1.508.079 2.245.001.728-.105 1.446-.15 2.172-.046.74.087 1.388.129 2.113.046.799.018 1.607.023 2.41.005.619.057 1.243.006 1.854-.044.526-.203 1.033-.279 1.55-3.395-.43-7.74-1.014-11.745-1.535a4.063 4.063 0 0 0-.154-1.212c-.255-.86-.184-1.874-.258-2.821m-1.837-6.398l-.011 2.789-.037 7.346c-.957-.121-1.876-.236-2.738-.34l-6.836-.815c-.098-2.84-.232-5.38-.355-8.588-.033-1.082-.098-2.235-.07-3.471.016-.617.06-1.25.159-1.892.1-.644.257-1.282.464-1.897.41-1.237.998-2.376 1.565-3.435.144-.26.269-.537.513-.86.12-.158.291-.336.517-.468a1.67 1.67 0 0 1 .706-.217c.467-.028.792.082 1.103.18.161.043.306.115.455.178.15.062.288.138.422.218.857.49 1.49 1.157 1.996 1.835a9.95 9.95 0 0 1 1.177 2.092c.589 1.397.83 2.787.912 4.017.084 1.233.057 2.328.058 3.328m-.057 11.893a12619.782 12619.782 0 0 0-.022 9.484l-.001.585c-.002.2-.008.403-.028.61a3.213 3.213 0 0 1-.122.65 1.605 1.605 0 0 1-.063.176 1.773 1.773 0 0 1-.092.197 1.657 1.657 0 0 1-.295.377 1.247 1.247 0 0 1-.732.318c-.136.01-.26.005-.4-.02a2.383 2.383 0 0 1-.263-.058l-.723-.221c-.447-.14-.847-.263-1.208-.375-.718-.227-1.275-.402-1.704-.556-.859-.307-1.232-.47-1.443-.645a3.594 3.594 0 0 0-.394-.224c-.211-.107-.528-.298-.75-.604-.215-.308-.319-.677-.364-1.033a4.39 4.39 0 0 1-.032-.408c-.092-.56-.098-1.186-.085-1.762l-.218.262c.024-.442.041-.885.056-1.327a2.876 2.876 0 0 0-.166-.514c-.174-.344-.273-.458-.331-.996-.058-.537-.055-1.496-.094-3.535a187.32 187.32 0 0 0-.046-1.85c3.53.437 6.617.823 9.521 1.192l-.001.277M51.778 44.59c-.012.349-.007.68-.039 1.108-.023.212-.033.399-.143.756a1.628 1.628 0 0 1-.48.759c-.287.25-.65.332-.958.313-.301-.013-.641-.136-.698-.147-.67-.191-2.274-.617-2.916-.855a22.642 22.642 0 0 0-.819-.256c-.211-.068-.455-.126-.704-.221l-.405-.145a2.527 2.527 0 0 1-.514-.26 2.048 2.048 0 0 1-.475-.442 2.526 2.526 0 0 1-.272-.507 3.281 3.281 0 0 1-.196-.875c-.042-.501.001-.84.007-.933.095-.275.157-.45.197-.556-.156-.05-.292-.101-.337-.104-.101-.007.001-1.432-.046-1.746-.065-.524-.108-1.697-.131-2.28-.039-.958-.085-1.853-.126-2.736 2.861.388 5.164.727 8.91 1.342l-.016.238c-.061.857-.079.71-.027 1.62.03.52-.068 1.829-.002 2.313.188 1.365.165.477.206 1.945.009.357 0 .98-.016 1.669m-9.146-12.542a98.762 98.762 0 0 0-.214-6.52c-.077-1.232-.133-2.532.103-3.868.239-1.34.795-2.577 1.405-3.696.155-.286.358-.542.557-.794.203-.243.376-.521.675-.846a1.58 1.58 0 0 1 .151-.138c.313-.261.771-.332 1.091-.295.166.016.317.042.454.082.139.04.285.068.418.123a4.955 4.955 0 0 1 1.476.84c.434.353.815.758 1.15 1.193.327.439.608.909.85 1.397.339.712.578 1.473.72 2.248.147.78.182 1.554.189 2.306.005.672-.14 1.324-.126 1.952.056 2.74.179 5.47.215 8.215.006.449-.009.893-.033 1.334-2.85-.365-4.533-.58-8.785-1.121-.07.003-.153.004-.247.003a60.91 60.91 0 0 1-.049-2.415M40.7 25.677c-.032.616-.194 1.168-.211 1.768-.058 2.009-.036 4.015-.024 6.024.002.355.01.624.022.844-2.117-.198-5.255-.574-8.652-1.001a48.147 48.147 0 0 0-.147-2.054c-.061-.634-.215-1.242-.303-1.874-.038-.276-.018-.583-.015-.875.019-1.691.046-3.371.111-5.086a17.36 17.36 0 0 1 .516-3.44c.202-.82.497-1.605.829-2.35.167-.373.342-.736.518-1.092l.275-.541a3.018 3.018 0 0 1 .234-.38c.1-.138.213-.265.343-.372.047-.038.096-.073.145-.108.256-.172.563-.26.873-.272.156-.007.313.006.469.032.072.013.168.03.22.046l.167.047a4.43 4.43 0 0 1 1.217.553 6.779 6.779 0 0 1 1.784 1.747c.679.967 1.014 1.763 1.366 2.864.188 1.09.253 2.083.277 2.984.025.908.024 1.725-.014 2.536m-.046 17.75l-.003.273a5.534 5.534 0 0 1-.03.435c-.06.574-.265 1.046-.595 1.34a1.31 1.31 0 0 1-.711.329 1.71 1.71 0 0 1-.611-.034c-.838-.24-1.022-.324-1.409-.435l-1.013-.3a22.64 22.64 0 0 1-2.108-.697 56.19 56.19 0 0 0-.301-.122 3.233 3.233 0 0 1-.423-.19 2.014 2.014 0 0 1-.484-.36 2.043 2.043 0 0 1-.342-.491c-.317-.683-.286-1.274-.246-1.681.005-.05.054-.127.117-.214l.104-.134c.068-.045.092-.09.136-.13.051-.053.092-.1.129-.14 0-.113.001-.224.004-.332l-.187.219c.006-.116.007-.231.013-.347-.221.118-.409.218-.5.322-.14-.52-.129-2.082-.169-2.675-.077-1.467-.1-2.75-.156-4.075 1.794.258 3.231.456 3.891.548l4.812.64c.047.346.088.689.066 1.716-.018.905-.005 2.339.006 3.82l.011 2.198-.001.517M30.425 29.554c-.025.873-.2 1.872-.21 2.747-.003.216.095.433.106.654.003.054.001.109.002.164a258.262 258.262 0 0 1-7.494-1.071 28.869 28.869 0 0 0-.069-1.58c-.108-1.41-.3-2.876-.369-4.295-.038-.784.083-1.521.046-2.305-.033-.796-.098-1.587-.097-2.405.007-1.14.087-1.608.162-2.068.09-.458.153-.931.516-2.038.155-.466.392-1.031.666-1.598.136-.283.28-.567.424-.843.07-.137.142-.281.237-.44a1.99 1.99 0 0 1 .413-.51 1.34 1.34 0 0 1 .771-.308c.256-.018.45.025.614.066.157.049.299.1.436.15l.363.18c1.35.788 2.37 2.034 2.843 3.37.173.474.425 1.358.537 2.26.123.904.118 1.783.122 2.257-.001.976.023 1.922.009 2.88-.02 1.017-.076 2.03-.113 3.046-.021.604.103 1.083.085 1.687m-.084 7.95c-.013 1.242-.115 2.158-.106 3.412l.015 1.2c0 .216-.002.438-.036.682a2.145 2.145 0 0 1-.112.455c-.058.16-.147.304-.263.425a.888.888 0 0 1-.52.269 1.374 1.374 0 0 1-.608-.063l-.76-.23-1.444-.453c-.478-.151-.947-.32-1.408-.487-.233-.082-.449-.18-.68-.274-.24-.093-.542-.265-.74-.517a1.846 1.846 0 0 1-.345-.812 3.337 3.337 0 0 1-.049-.697c.008-.221.029-.434.059-.654.033-.193.068-.392.092-.603l-.017-.06-.154.197c.018-.371.026-.743.037-1.114-.106-.867-.332-1.671-.391-2.568-.064-.978-.06-2.01-.074-3.034 1.194.214 2.482.43 3.775.629 1.266.196 2.532.385 3.711.557-.019.603-.064 1.204-.027 1.803.035.553.051 1.39.045 1.938m-9.111-2.876c-.024.2-.076.377-.189.559-.168.268-.112.575-.053.858.05.24.073.485.122.727.047.228-.095 1.492-.078 1.724.042.593.123.935.155 1.276.016.17.02.34.001.539a4.318 4.318 0 0 1-.144.742c-.048.164-.1.302-.178.49a1.732 1.732 0 0 1-.296.497l-.075.076a.722.722 0 0 1-.441.197 1.33 1.33 0 0 1-.499-.071l-1.256-.4a8.39 8.39 0 0 0-.679-.164c-.143-.03-.293-.021-.432-.066-.101-.032-.16-.132-.243-.195-.316-.242-.798-.248-1.164-.361l-.423-.138a1.93 1.93 0 0 1-.445-.198c-.306-.18-.493-.496-.597-.792a1.435 1.435 0 0 1-.069-.768l.048-.232a9.884 9.884 0 0 1-.02-1.002l-.004-.02-.168.206c.014-.276.019-.554.029-.831-.047-.168-.109-.33-.155-.496-.031-.114-.082-.23-.079-.346.021-1.29.006-2.58-.006-3.871-.007-.65.004-1.298-.02-1.943 1.196.32 2.366.61 3.649.894.607.133 1.89.415 3.517.726l.084.016.011.119c.054.5.143.999.158 1.499.007.252-.03.5-.061.749m-7.506-5.507c-.044-.245-.094-.49-.145-.734-.046-.208.175-.5.051-.688-.125-.19-.052-.395-.03-.598.05-.44-.134-.87-.15-1.307a37.459 37.459 0 0 1-.015-2.298c.011-.47.102-.936.096-1.404a6.995 6.995 0 0 1 .157-1.445c.088-.44-.026-.9-.091-1.358-.129-.808.048-1.54.318-2.241.271-.707.645-1.402.969-2.27.048-.127.182-.206.262-.341.081-.135.148-.317.338-.438a1.679 1.679 0 0 1 1.151-.291c.29.025.508.089.756.145a4.794 4.794 0 0 1 1.564.776c.756.595 1.128 1.377 1.48 2.197.268.608.639 1.32.672 1.995.02.32-.022.643.007.953.023.327.063.65.052.975-.012.33-.125.655-.132.976-.016.6.149 1.102.171 1.696.021.599-.103 1.29-.047 1.888l.093 1.24c.041.444.083 1.072-.054 1.502-.073.229-.068.467-.144.696-.072.217-.188.426-.186.654.007.616.098 1.232.156 1.849l.049.504a138.353 138.353 0 0 1-4.261-.807 60.287 60.287 0 0 1-2.958-.687 9.828 9.828 0 0 0-.129-1.14m-1.178-.44c.01.5.016.899.019 1.245l-.244-.064a114.314 114.314 0 0 1-4.325-1.305 180.63 180.63 0 0 1-.968-.31l-1.28-.458a22.726 22.726 0 0 1-.69-.26c-.057-1.728-.11-3.46-.153-5.197-.02-1.23-.082-2.482.089-3.787.166-1.317.663-2.557 1.229-3.677.13-.262.241-.531.351-.8.053-.132.105-.27.185-.43.085-.16.175-.33.398-.528.139-.12.304-.21.48-.26.157-.044.337-.057.474-.05.141.009.264.034.374.062.207.067.405.13.586.228.372.176.681.426.96.685.548.533.954 1.144 1.288 1.775.312.593.527 1.1.711 1.62.18.52.325 1.059.427 1.718.068.452.077 1.124.052 1.779-.022.656-.057 1.295-.039 1.726l.105 1.51c.018.453-.011 1.626.01 2.089.025.556-.049 2.128-.039 2.689m-.01 4.43c-.014 1.262-.086 1.99-.157 2.865-.035.438-.07.912-.096 1.509l-.032.997c-.021.375.022.76-.083 1.319-.048.208-.125.42-.291.594a.741.741 0 0 1-.612.214 1.624 1.624 0 0 1-.342-.074l-.251-.08-.947-.304a41.354 41.354 0 0 1-1.833-.635c-.16-.06-.356-.141-.57-.237-.207-.104-.452-.185-.686-.352a1.276 1.276 0 0 1-.449-.637 3.504 3.504 0 0 1-.132-.607l-.004-.037c-.071-.44-.076-.93-.066-1.384l-.15.19-.004.014a.01.01 0 0 1-.002-.006l-.005.006v-.014c-.045-.087-.027-.375-.038-.48-.159-1.388-.522-2.741-.575-4.126a948.005 948.005 0 0 1-.151-4.26l.079.037c.365.158.775.319 1.198.495l.65.267.672.252a58.614 58.614 0 0 0 4.142 1.41c.259.075.514.148.766.218.001.877-.017 1.48-.031 2.847m180.509 5.67c-.107-3.761-.181-7.527-.252-11.295l-.108-5.651-.067-4.021a83.88 83.88 0 0 1-4.806.483c-3.684.268-7.369.4-11.055.492-7.371.17-14.741.154-22.109.069-7.367-.09-14.733-.254-22.098-.484l-2.761-.092c-.929-.035-1.841-.094-2.763-.14l-5.516-.291-11.03-.583-88.189-4.723c-10.915-.592-17.816-1.111-20.714-1.452l.007.157.048 1.207c.192 5.487.296 10.974.511 16.462.132 3.352.282 6.703.439 10.05 1.546.396 3.588.965 4.254 1.087 1.867.343 5.984 1.367 8.03 1.887 7.618 1.938 14.119 3.597 21.42 5.803 7.573 2.284 14.82 4.319 22.526 6.103 8.617 2.002 17.358 4.056 26.103 5.73 2.215.428 4.396 1.228 6.559 1.572 3.629.56 7.274 1.014 10.924 1.56 3.646.54 7.321 1.197 10.936 2.109 2.554.632 5.065 1.342 7.573 1.884 2.511.554 4.993.896 7.545.962 2.266.074 4.577.232 6.814.045.166-.016.333-.032.499-.045.159-.108.498-.2.64-.181.208.025.398-.065.597-.106.316-.066 1.007.018 1.325.049h.059l.575-.05c.357-.058.741-.142.975-.165a.808.808 0 0 1 .376.038c3.209-.3 6.418-.61 9.622-.912l7.334-.69 3.672-.331 4.341-.37 2.427-.186-.168 2.417-.089 1.199-.003.032c.571-.56 8.114-7.65 18.61-2.602.029-.167.062-.335.101-.504l.085-.396.021-.101.011-.05.003-.012c-.021-.007.029.003.024 0l.003-.006.009-.024.07-.196c.098-.261.179-.52.292-.778.114-.257.216-.515.338-.767.127-.252.266-.494.364-.753.164-.233.284-.482.425-.717.149-.234.31-.457.462-.68.638-.881 1.437-1.564 2.165-2.072.511-.334.95-.584 1.32-.796.015-.048.038-.085.074-.098.086-.03.036-.223.158-.225a.661.661 0 0 1 .227.053c.089-.053.169-.102.244-.15-.051-3.366.07-6.87.614-10.93.324-2.416.049-5.343-.023-7.825"/>
    </g>
</svg>
